<?xml version="1.0" encoding="utf-8"?>
<!-- Generator: Adobe Illustrator 26.0.1, SVG Export Plug-In . SVG Version: 6.00 Build 0)  -->
<svg version="1.2" baseProfile="tiny" id="Layer_1" xmlns="http://www.w3.org/2000/svg" xmlns:xlink="http://www.w3.org/1999/xlink"
	 x="0px" y="0px" viewBox="0 0 1920 1080" overflow="visible" xml:space="preserve">
<rect fill="#FFCE00" width="400" height="1080"/>
<g id="Roller">
	<path fill="#EFC100" d="M511.3-5.8c0,7.3,0.1,14.7,0.1,22c0,24.3,0,48.7,0,73c-0.4,0.3-0.9,0.5-1.4,0.3c-2.9-1.4-5.9-0.9-8.9-0.9
		c-32.8,0-65.6,0-98.4,0c-3.2,0-3.2,0-3.2-3.2c0-19.1,0-38.2,0-57.3c0.2-1.6,1.4-2.8,1.9-4.2c1.5-4,1.9-8.1,2-12.3
		c0.1-3.6,0.5-7.2,1.2-10.7c0.3-1.8,0.9-3.7,2.1-5.2c1-1.2,1.9-1.1,2.7,0.2c0.5,0.8,0.8,1.8,1,2.7c0.9,3.7,1.6,7.5,2.4,11.3
		c0.7,3.4,2.2,5,4.8,5.4c3,0.4,5.3-0.9,6.8-4c1.2-2.5,2.6-4.9,3.4-7.6c0.2-0.5,0.3-0.9,0.6-1.3c0.4-0.6,0.8-1.3,1.7-1.1
		c0.9,0.2,1,1,1,1.7c0.1,3.5,0.3,7-0.2,10.5c-0.4,2.7,0.1,5.4,0.6,8c0.3,1.4,1,2.7,2.5,3c1.6,0.4,2.9-0.4,3.9-1.6
		c3-3.7,3.9-8.2,4.6-12.7c0.8-6.3,0.8-12.7,2-19c0.4-1.9,0.7-3.9,1.5-5.7c0.4-0.9,0.9-1.8,2.1-1.7c1.1,0.2,1.7,1,1.9,2
		c0.4,1.8,0.6,3.7,0.7,5.6c0.2,5.9-0.2,11.7-0.5,17.6c-0.1,2.1,0.2,4.2,0.8,6.3c0.8,2.7,3,4.6,5.1,4.6c2.2,0,4.2-1.9,4.8-4.8
		c0.6-2.5,0.9-5,1.1-7.5c0.3-3.5,1.3-6.7,3.2-9.7c1.7-2.7,3.7-2.5,5,0.4c0.6,1.3,1.1,2.6,1.4,3.9c0.7,2.8,2.5,4.7,4.7,6.4
		c2.9,2.2,5.8,1.3,6.8-2.2c1.1-3.7,1.6-7.5,1.9-11.3c0.1-1.4,0.2-2.8,0.6-4.1c0.7-2.4,2.6-3.1,4.7-1.7c1.5,1,2.3,2.5,2.8,4.2
		c0.7,2.4,1.1,4.9,1.1,7.5c0,3.3-0.1,6.7,0,10c0.1,2.8,0.6,5.6,2.5,7.8c1.9,2.3,4.5,2.4,6.6,0.2c1-1.1,1.8-2.3,2.3-3.7
		c1.2-3.6,1.7-7.3,2-11c0.2-3.2,1.2-6.2,2.4-9.2C510.4-5.3,510.6-5.8,511.3-5.8z"/>
	<path fill="#FFD527" d="M399.7,27.4c0,19.7,0,39.3-0.1,59c0,1.1,0.2,1.4,1.5,1.4c35.2-0.1,70.3,0,105.5-0.1c1.9,0,2.9,1.7,4.7,1.5
		c0.3,2,2.1,2.6,3.4,3.7c1.4,1.2,2.1,2.5,2,4.4c-0.1,2.4,0,4.7,0.1,7.1c0.5,0.6,0.7,1.3,0.7,2c0.1,3.3,0.1,6.5,0,9.8
		c0,0.8-0.3,1.4-0.7,2c0,3.2,0,6.3-0.1,9.5c0,0.9,0.3,1.9-0.3,2.8c-1.1-2.1-3-2.3-5.2-2.3c-38.3,0-76.5,0-114.8,0
		c-1.6,0-3.3,0.3-4.7-0.8c0-3-0.1-5.9-0.1-8.9c-1-4.8-1-9.7,0-14.5c-1-6.5,0.5-11.8,6.7-15.2c1.3-0.7,1-1.9,1-3.1
		c0-30.3,0-60.6,0-90.8c0-9.5,0-18.9,0-28.4c0-0.8-0.3-1.6,0.3-2.4c1,0.9,0.8,2.1,0.8,3.2c0,18.9,0,37.8,0,56.7
		C400.4,25.3,400.3,26.4,399.7,27.4z"/>
	<path fill="#EFCF48" d="M399.7,27.4c0-20,0-40,0-60c0-1.1-0.1-2.1-0.1-3.2c0.5-1.7,1.6-3.2,2.7-4.6c2.8-3.3,6.6-2.9,8.8,0.9
		c1.9,3.1,1.9,6.7,2.1,10.2c0.2,4.2,0.2,8.5,1,12.7c0.4,2.2,1.3,4.2,2.8,5.9c3.7,4.4,9.7,3.7,12.3-1.5c1.7-3.4,1.9-7.1,1.8-10.8
		c-0.1-3.4-0.3-6.8-0.4-10.3c0-1.2-0.1-2.5,0.1-3.7c0.4-3.4,1.6-4.9,4.1-5.2c2.7-0.3,5.6,1.6,6.3,4.4c0.6,2.2,0.8,4.5,1.1,6.8
		c0.2,1.4,0.4,2.7,0.9,4c1.1,2.8,3.4,4.5,6.2,4.1c3.6-0.5,5-1.6,5.4-4.9c0.4-3.8,0.3-7.7,0.6-11.5c0.4-4.5,1.9-6.4,4.7-6.7
		c4.9-0.5,8.3,1.5,9.7,5.7c1.1,3.2,0.9,6.4,0.7,9.7c-0.3,5.1-1.4,10.2-1.4,15.3c0,2.4-0.1,4.9,0.9,7.2c1.2,2.6,3,4.3,6,4.3
		c3,0,4.9-1.8,5.9-4.4c1.3-3.3,1.4-6.9,1.5-10.4c0.2-5.9,0-11.8,0.1-17.6c0-3.1,0.5-6.2,1.6-9.1c1.2-3.1,3.3-4.6,5.8-4.3
		c2.4,0.3,4,2,4.4,5.4c0.9,6.6,0.7,13.2,1,19.8c0.1,2.2,1.1,3.7,2.9,4.7c2.8,1.6,4.8,0.9,5.7-2.2c1-3.3,1.4-6.7,1.4-10.1
		c0-2.9,0-5.9,0.2-8.8c0.1-1.7,0.3-3.6,2.7-3.7c2.2-0.1,2.6,1.7,2.9,3.3c1.1,5.6,1.6,11.3,0.9,17c-0.7,6.1-2.1,12.2-1.8,18.5
		c-2.5,4.6-2.6,9.6-3.4,14.6c-0.5,3.4-0.8,6.9-3,9.9c-1.4,1.9-3.1,3.3-5.5,2.9c-2.6-0.5-3.9-2.5-4.7-4.8c-0.8-2.3-1-4.7-1-7.2
		c0-5.1,0.5-10.3-0.9-15.3c-0.5-1.9-1.3-3.5-3.1-4.5c-1.7-0.9-2.9-0.3-3.2,1.5c-0.6,3.7-1,7.4-1.5,11.1c-0.3,1.8-0.6,3.7-1.2,5.5
		c-1.1,3.3-4.9,4.1-7.8,1.6c-2.2-1.9-4.3-4-4.9-7.1c-0.2-1.3-0.8-2.5-1.3-3.7c-0.3-0.8-0.5-1.9-1.7-1.9c-1,0-1.6,0.8-2,1.6
		c-1.7,2.7-2.8,5.7-3.1,8.9c-0.2,2.6-0.6,5.2-1,7.7c-0.6,3.5-3.1,6.1-5.7,6.1c-2.5,0-5.6-3.3-6.1-6.4c-0.6-3.9-0.4-7.7-0.1-11.6
		c0.3-5.4,0.6-10.9-0.3-16.4c-0.2-1.1-0.5-2-1.6-2.1c-1.1-0.1-1.4,1.1-1.6,1.9c-1.2,4.3-1.9,8.7-2.3,13.2
		c-0.6,6.7-0.5,13.5-3.2,19.8c-0.5,1.1-1,2.2-1.7,3.2c-1.4,2-3.2,3.6-5.7,2.8c-2.4-0.8-2.7-3.2-3.1-5.4c-0.8-4.9,0.4-9.7,0-14.6
		c-0.1-1.2,0.7-3.3-0.5-3.5c-1.4-0.2-1.3,1.9-1.8,3c-1.3,2.7-2.5,5.5-3.9,8.1c-1.5,2.8-4.2,3.6-7.1,3.1c-2.7-0.5-4.4-2.2-4.9-5.1
		c-0.8-4.3-1.8-8.6-2.7-12.8c-0.1-0.4-0.1-0.8-0.3-1.2c-0.3-0.6-0.4-1.7-1.2-1.6c-0.5,0-0.9,0.8-1.2,1.4c-1.4,2.4-1.8,5.1-2.1,7.7
		c-0.5,4.4-0.5,8.8-1.1,13.1C403,21.2,402.7,24.8,399.7,27.4z"/>
	<path fill="#54A300" d="M470.8,221.6c0,26.9,0,53.7,0,80.6c0,9.9-4.4,15.5-14.1,17.6c-6.7,1.5-13,0.4-18.6-3.8
		c-3.8-2.9-5.6-6.7-5.6-11.6c0.1-27.6,0-55.2,0-82.8c0.9-0.9,2.1-0.8,3.2-0.8c10.6,0,21.3,0,31.9,0
		C468.7,220.8,469.9,220.7,470.8,221.6z"/>
	<path fill="#848C8F" d="M516.8,118.2c0-4.6,0-9.2,0-13.9c3.7,0,7.3,0,11,0c3.6,0,6.1,2.6,6.1,6.2c0,12.3-0.1,24.7,0,37
		c0,3.3-1.4,5-4.1,6.2c-11.9,5.1-23.8,10.3-35.7,15.4c-11.2,4.8-22.3,9.6-33.5,14.3c-1.6,0.7-2.1,1.6-2.1,3.3c0.1,5.4,0,10.8,0,16.2
		c-0.3,0.3-0.6,0.6-1,0.6c-4,0.4-7.9,0.4-11.9,0c-0.4,0-0.7-0.3-1-0.6c0-7.8,0.2-15.5,0-23.3c-0.1-3.3,1.5-5.2,4.3-6.4
		c15.3-6.6,30.7-13.2,46.1-19.8c7.7-3.3,15.4-6.7,23.2-9.9c1.5-0.6,2.1-1.4,2.1-3.1c-0.1-6.3,0-12.6,0-18.9
		C520.2,117.5,520.5,118.3,516.8,118.2z"/>
	<path fill="#E8C621" d="M391.8,127.5c40.4,0,80.8,0,121.3-0.1c2.4,0,3.7,0.4,3.4,3.1c-1.1,1.5-3.2,2.3-4,3.8
		c-1.9,3.9-5.3,3.1-8.3,3.1c-33.9,0-67.9,0-101.8,0.1c-1.9,0-3.4-0.4-4.8-1.8c-1.1-1.2-2.4-2.3-3.7-3.2
		C391.8,131.2,391.2,129.6,391.8,127.5z"/>
	<path fill="#4C9302" d="M444.7,202.9c4.6,0,9.3,0,13.9,0c4.4,0,8.8,0.1,13.1,0.1c1.5,0,2,0.4,1.9,1.9c-0.1,4.6-0.2,9.3,0,13.9
		c0.1,2.4-0.6,3.3-2.9,2.9c-12.8,0-25.5,0-38.3,0c-2.4,0.4-3.1-0.6-3-3c0.2-4.5,0.1-9.1,0-13.7c0-1.7,0.5-2,2-2
		C435.9,203,440.3,202.9,444.7,202.9z"/>
	<path fill="#EFCF48" d="M420.6-35.2c-2-10.2-6.2-19.9-5.3-30.5c0.1-1.2,0.3-2.4,0.7-3.6c0.6-2,2.1-3.2,4.2-3.2
		c2.1,0,3.5,1.2,4.2,3.2c0.9,2.8,1.2,5.7,1.1,8.7c-0.3,7.2-2.6,14.1-3.9,21.1C421.3-38,420.9-36.6,420.6-35.2z"/>
	<path fill="#EFCF48" d="M475.2-37.2c-1.2-5.3-2.5-10.6-3.6-15.9c-1-4.8-0.5-9.6,0.7-14.3c0.4-1.6,1.1-3.3,3-3.4
		c2-0.1,3.1,1.4,3.6,3.1c1.1,3.4,1.7,7,1.4,10.6C479.8-50.3,477.2-44,475.2-37.2z"/>
	<path fill="#EFCF48" d="M446.4-39.5c-0.6-7.2-2.3-13.7-2.1-20.3c0-1.4,0.3-2.8,0.5-4.1c0.2-1.3,0.9-2.4,2.3-2.4c1.3,0,2,1,2.3,2.2
		c0.9,3.2,0.8,6.5,0.2,9.7c-0.8,4.5-1.7,9-2.6,13.4C446.9-40.7,446.8-40.4,446.4-39.5z"/>
	<path fill="#858D8F" d="M391.6,104c0,4.8,0,9.7,0,14.5c-2.1-0.6-4.3-0.4-6-2.2c-2-2.2-2.8-4.5-1.8-7.3c0.9-2.8,2.9-4.4,5.9-4.7
		C390.4,104.3,391,104.1,391.6,104z"/>
	<path fill="#EFCF48" d="M502.4-46.7c-1.1-4.7-2.4-9.2-2.5-14c0-1.1,0.1-2.1,0.4-3.2c0.2-1.2,0.7-2.5,2.1-2.7c1.5-0.1,2,1.2,2.4,2.4
		c0.9,2.6,0.7,5.3,0.1,8C504-53,503.2-49.9,502.4-46.7z"/>
	<path fill="#89C14D" d="M443.3,261.3c-0.4,10.7-0.7,21.4-0.5,32.1c0,2.3-1.3,3.7-3.3,3.7c-2.2,0-3.2-1.5-3.5-3.4
		c-0.2-1.6-0.1-3.3-0.1-4.9c0-11.5,0-23,0.1-34.5c0-2.5,0.2-5,0.4-7.6c0.1-2.1,1.2-3.1,3.3-3.1c2,0,3,1.1,3.1,3
		C443.1,251.5,443.4,256.4,443.3,261.3z"/>
	<path fill="#88C14C" d="M436.4,231c-0.1-1.6,0.1-3.1,0.7-4.5c0.7-1.5,1.7-2.7,3.5-2.4c1.9,0.3,2.8,1.6,3,3.3c0.3,2.3,0.1,4.7-0.6,7
		c-0.5,1.6-1.4,3-3.4,2.9c-1.9-0.1-2.6-1.4-3.1-2.9C436.3,233.2,436.5,232.1,436.4,231z"/>
	<path fill="#80B24B" d="M436.9,212.5c0,0.4,0.1,1.1-0.1,1.7c-0.5,1.3-1.3,2.6-2.9,2.4c-1.5-0.2-2.4-1.2-2.4-2.9c0-1.1,0-2.3,0-3.4
		c-0.1-1.7,0.8-2.6,2.4-2.8c1.6-0.2,2.3,0.7,2.8,2.1C436.9,210.4,436.9,211.3,436.9,212.5z"/>
</g>
<g>
	<path fill="#EFCF48" d="M1158.9,121.7c-2.1,3-3.6,5.8-5.6,8.2c-6.6,7.9-16.5,6.7-21-2.6c-2.9-5.8-3.1-11.9-1.4-18
		c0.8-2.9,0.7-4.1-2.6-4.6c-3.7-0.6-7.4-1.9-11-3.2c-6.3-2.3-10.3-6.7-10.8-13.6c-0.5-6.7,3-11.4,8.5-14.7
		c5.4-3.3,11.4-4.8,17.6-4.6c3.7,0.1,4-1.1,3.4-4.3c-2.2-11.6,5.3-20.8,15.7-19.3c6.4,0.9,11.1,4.7,13.7,10.4
		c1.6,3.5,3.1,4.8,7.4,3.8c7.8-1.9,15.3-0.7,21.3,5.3c8.4,8.4,5.9,19.2-5.3,23.1c-2.4,0.8-5,1.5-7.4,2.2c1.1,2.4,2.4,4.7,3.4,7.1
		c3.1,8,3.1,16-0.7,23.7c-4.9,10.1-15.6,11.4-23.2,3.2C1160.1,123,1159.6,122.4,1158.9,121.7z"/>
	<path fill="#EFCF48" d="M1124.8,114.5c-5.8,10.8-9.5,20.8-15.5,29.6c-1.5,2.2-3.1,4.3-5,6.2c-4.1,4-8.6,4.9-12.7,2.8
		c-4.4-2.3-7-7.9-6-13.2c1.4-7.1,5.6-12.3,12-15C1106,121.1,1114.8,118.3,1124.8,114.5z"/>
	<path fill="#EFCF48" d="M1177.7,45c5.7-8.4,10.5-16.2,16-23.4c4.2-5.5,10.2-8.6,17.4-8.1c4.6,0.3,8.4,2.3,10.2,6.8
		c1.9,4.7-0.1,8.4-3.4,11.7c-3.1,3.1-6.9,5.2-11.1,6.6C1197.7,41.5,1188.1,42.6,1177.7,45z"/>
	<path fill="#EFCF48" d="M1189.8,100.1c8.7,1.1,16.3,1.7,23.8,3.1c10.6,2,17.4,11.3,15.8,20.7c-1.4,7.9-7.8,11.1-14.8,7.3
		c-4.6-2.5-8.1-6.3-11.1-10.6C1198.9,114.2,1194.8,107.7,1189.8,100.1z"/>
	<path fill="#EFCF48" d="M1129.8,57.4c-13.2-2.8-25.6-4-37.3-8.5c-6-2.3-8.5-5.6-8-10.1c0.5-4.8,4.9-9.1,10.5-10
		c7.5-1.2,14.1,1.2,18.8,6.9C1119.2,42.3,1124,49.5,1129.8,57.4z"/>
</g>
<g>
	<path fill="#EFCF48" d="M1675.4,498c-2.7,10.3-5,19.5-7.5,28.5c-2.5,9-6.5,17.2-14.7,22.4c-16.6,10.5-36,2.8-42.2-16.5
		c-3.4-10.7-1.8-21,1.6-31.3c0.9-2.6,1.7-5.3,2.2-6.6c-3,2.6-6.7,5.9-10.5,9.2c-3,2.7-6.1,5.2-9.9,6.6c-8,3-14.6-2.5-13.1-11
		c1.1-6.2,4.3-11.5,7.8-16.6c1.9-2.7,3.9-5.3,6.6-8.9c-6.2,1.6-11.3,3-16.5,4.3c-7.2,1.8-14.4,2.6-21.7,0.2
		c-15.5-5.1-21.5-19-14.4-33.8c3.1-6.4,7.6-11.7,13.3-16c2.9-2.2,5.9-4.2,9.6-6.8c-7.4-0.2-13.7,1.4-20.1,2.4
		c-13.8,2.1-27.7,4.2-41.7,1.4c-7.8-1.5-14.9-4.4-17.9-12.6c-3-8.2,0.5-15,5.9-21c8.6-9.5,20.4-12.7,32.3-15.4
		c12.4-2.8,25.2-2.3,37.7-3.8c0.7-0.1,1.5-0.2,3.2-0.5c-6.1-3.6-11.5-6.5-16.1-10.6c-7.1-6.3-13.2-13.2-10.4-23.6
		c2.9-10.6,11.2-15.2,21.1-17.4c10.7-2.4,20.5,0.2,29.4,6.3c4.8,3.3,9.1,7.3,13.7,10.8c2.5,1.9,5.1,3.8,7.9,5.2
		c4.3,2.1,6.5,1.1,8-3.4c1.7-5.3,2-10.8,2.3-16.3c0.7-15.6,0.1-31.3,2.8-46.8c1.1-6.6,3-13,6.5-18.8c9.9-16.4,29.1-17.2,40.4-1.6
		c8.4,11.7,9.2,25.1,7.7,38.7c-1,9.4-2.7,18.8-3.9,28.2c-0.4,3.3-0.6,6.6-0.7,10c-0.1,2-0.4,4.3,1.5,5.5c2.2,1.3,4.2-0.1,5.9-1.4
		c9.2-6.6,18.1-13.6,28.7-18c5.2-2.2,10.5-4.2,16.1-5.1c14.8-2.4,24.9,9.7,20,23.9c-1.8,5.3-5.2,9.6-8.4,14.1
		c-4,5.5-8.2,11-10.2,17.6c-1.9,6.1-0.6,8.1,5.8,9.2c9.4,1.6,18.5-1,27.6-2.7c12.9-2.5,25.7-5.7,38.8-6.5c4.3-0.3,8.7-0.3,13,0.4
		c8.9,1.6,16.9,4.9,19.9,14.3c3.3,10.1,0.2,19.1-6.7,26.7c-7.6,8.4-17.9,11-28.7,12.5c-12,1.6-24.2,1.7-36.2,3.8
		c-3.3,0.6-6.4,1.5-9.6,3.4c3.4,1.7,6.5,3.1,9.6,4.6c3,1.5,5.6,3.6,8,5.9c6.8,6.5,6.9,18.1-6.2,20.6c2.3,3,4.6,5.8,6.6,8.7
		c13.8,20-0.2,34.4-16.1,37.8c-15.5,3.3-27.8-3.9-39.3-13c-4.4-3.5-8.3-7.6-14.2-10.5c1.3,4.7,2.5,8.6,3.6,12.6
		c1.1,3.9,1.1,7.9,0.7,11.9c-0.4,4.4-2.3,8.1-6.8,9.6c-4.3,1.5-7.8-0.3-10.8-3.4C1681.9,510.9,1679.1,505,1675.4,498z"/>
	<path fill="#EFCF48" d="M1803.6,482.7c0.8-7.6,1.6-14.7,2.2-21.8c0.2-2,0.7-2.6,2.8-1.9c7.2,2.6,14.6,4.6,21.5,7.7
		c13.8,6.2,21.1,21.8,18.5,38.5c-1.4,8.8-3.9,17.2-10.7,23.6c-7,6.6-16.4,6.2-20.6-2.2C1810.4,512.7,1804.3,498.2,1803.6,482.7z"/>
	<path fill="#EFCF48" d="M1711.7,538.9c9.1,7.1,17.5,13.1,25.2,19.9c12.9,11.3,16.3,30.3,8.8,45.8c-1.6,3.3-3.9,6.3-6.9,8.5
		c-6.8,4.8-15.3,2.4-19-5.9c-6.9-15.3-12-31-9.6-48.3C1711.1,552.6,1711.2,546.2,1711.7,538.9z"/>
	<path fill="#EFCF48" d="M1501.6,452.8c2.3,23.5-1.5,44.9-15.9,63.7c-3.7,4.8-7.6,9.1-14.4,8c-6.7-1.1-9.5-6.2-11.2-12
		c-5-17.2,3.5-38.2,19-47.1C1486.5,461.1,1494.1,457,1501.6,452.8z"/>
	<path fill="#EFCF48" d="M1579.2,282.2c-16.9,3.3-32.3,7.3-48.3,8.1c-4.5,0.2-8.8,1.6-13.2,2.4c-4.7,0.9-9,0.4-12.2-3.5
		c-3.5-4.2-3.2-9-1.3-13.7c6.5-16,26.7-23.3,43.4-15.2C1558.8,265.8,1567.8,274.7,1579.2,282.2z"/>
	<path fill="#EFCF48" d="M1712.1,280.2c8.7-10,16.1-19.6,24.7-28.1c10.2-10.2,26.2-11.6,37.3-4.4c9.7,6.3,9.3,15.6-1,20.9
		c-13.5,6.9-28.2,8.7-43,10C1724.5,279,1718.9,279.5,1712.1,280.2z"/>
	<path fill="#EFCF48" d="M1836.7,353c-4.1,0-9.9-1.6-15.1-4.8c-5.3-3.4-10.5-7.1-15.8-10.5c-2.1-1.4-3-2.3-0.2-4
		c5.1-3.1,10-6.6,15.2-9.6c8.2-4.7,16.8-5.2,25.3-0.7c7.6,4,11.7,12.5,9.7,19.5C1854.2,349.1,1847.7,352.9,1836.7,353z"/>
</g>
<g>
	<path fill="#EFCF48" d="M1240.3,903.1c-5.5-2-11.4-2.6-16.4-5.8c-4.1-2.6-4.1-5,0.1-7.4c6.8-3.8,14.4-5.1,22-6.2
		c46.6-6.3,93.3-7.1,139.7,1.7c11.4,2.2,22.4,1.7,33.7,1.7c37.9,0,75.6,1.7,112.7,9.9c7.8,1.7,15.5,3.9,22.8,7.1
		c3.4,1.4,6.6,3.1,9.5,5.4c6.7,5.4,6.9,10.6,0.1,15.9c-9.6,7.4-21.3,10-32.8,12.7c-19.8,4.6-40,7-60.3,8.3c-1.9,0.1-3.9,0.4-6.4,0.6
		c2.5,2.3,4.6,3.9,6.3,5.9c5.2,5.9,5.1,12.1-0.3,17.8c-6,6.4-13.8,9.7-21.8,12.7c-20.2,7.4-41.2,10.8-62.4,12.5
		c-37.1,3.1-74.2,2.3-110.9-4.7c-13.4-2.6-26.7-5.8-38.9-12.2c-7.1-3.7-14.3-7.4-16-16.5c-0.4-2.4-2.6-1.6-4.1-1.6
		c-17.5-0.5-35-0.8-52.4-2.6c-20.9-2.2-41.7-4.8-61.6-11.9c-5.2-1.9-10.3-4-14.4-7.8c-4.7-4.3-4.8-9,0.1-13.2
		c7.3-6.2,16.3-8.8,25.3-11.2c22.1-5.9,44.8-8.3,67.6-9.8C1201,903.1,1220.7,903,1240.3,903.1z"/>
	<path fill="#EFCF48" d="M1163.3,972.1c20.4,0,36.6,1.2,52.3,6.1c2.8,0.9,5.6,2.1,8.2,3.6c6.6,3.9,6.6,8.4,0.1,12.4
		c-6.1,3.7-12.9,5.4-19.7,6.6c-27,4.7-53.9,4.7-80.7-1.5c-4.1-0.9-8-2.3-11.7-4.3c-2.9-1.6-6.3-3.2-6.1-7.1c0.1-3.6,3.1-5.3,6-6.8
		c7.6-4,16-5.5,24.3-6.9C1146.4,972.6,1156.8,972,1163.3,972.1z"/>
	<path fill="#EFCF48" d="M1517.8,975.2c-9.1,0-16.5-0.7-23.6-3.6c-2.1-0.9-4.7-1.7-4.5-4.6c0.1-2.6,2.4-3.5,4.4-4.2
		c15-5.1,30-4.9,45-0.1c2.1,0.7,4.7,1.8,4.5,4.6c-0.2,2.7-2.8,3.7-4.9,4.5C1531.6,974.5,1524,975.4,1517.8,975.2z"/>
</g>
<g id="Bucket">
	<path fill="#192A31" d="M1426.2,829.2c-4.5,31.5-9,63-13.5,94.5c-0.7,5-5.8,9.4-10.9,9.4c-43.3,0-86.5,0-129.8,0
		c-4.4,0-9.7-4.5-10.4-8.9c-2.5-17.1-4.9-34.3-7.4-51.4c-2.5-17.3-4.9-34.7-7.4-52c-0.3-0.6-0.4-1.3,0-1.7c0.6-0.5,1.1,0.1,1.5,0.5
		c0.9,0.9,1.6,2,2.4,3.1c4.3,6.3,8.9,12.2,14.2,17.7c1,1,1.9,2,2.4,3.4c0.5,2.1,0.2,4.2,0.3,6.2c0.2,3.6,1.3,6.8,4.3,9.1
		c2.7,2.1,5.2,2.1,7.9,0c0.9-0.7,1.7-1.7,3.1-1.7c1.9,0.2,3.3,1.4,4.8,2.4c7,4.5,14.5,7.9,22.4,10.5c1.3,0.4,2.8,0.6,3.5,2.1
		c0.5,2,0.3,4,0.3,6c0.1,2.1,0.5,4.2,1.6,6c1.4,2.2,3.1,2.3,4.8,0.3c1.6-1.9,1.6-4.2,2.1-6.5c0.2-1.2,0.1-2.4,0.8-3.5
		c1.3-0.9,2.7-0.6,4-0.4c5.5,0.8,11.1,1.5,16.7,1.4c14.4-0.2,28.5-2.7,41.6-9c11.7-5.6,21.5-13.8,29.4-24.1c3.1-4,6.2-8.1,8.8-12.5
		c0.4-0.8,0.8-1.7,1.7-2.1C1426.4,827.6,1426.4,828.4,1426.2,829.2z"/>
	<path fill="#EFCF48" d="M1240.5,764.3c-0.4-1.6,0.3-2.7,1.3-4c3.1-4,6.8-5.1,11.9-5.1c56.4,0.2,112.8,0.2,169.1,0
		c3.8,0,6.5,1.1,8.6,4.1c0.6,4.9-1.3,9.2-3.1,13.5c-4.1,9.3-10.8,16-20.8,18.7c-9.2,2.4-17.6,0.5-25.2-5.2c-0.6-0.5-1.3-1-1.9-1.5
		c-2.4-1.7-4.5-1.3-6.1,1.2c-1.2,1.9-1.7,4-2,6.2c-0.5,4.8-0.6,9.6-1.3,14.3c-0.7,4.7-1.5,9.3-3.8,13.5c-2.5,4.4-5.9,7.3-11.2,7.4
		c-5.2,0-8.5-3.1-10.9-7.3c-2.8-4.7-3.1-10.1-3.3-15.4c-0.1-3.6,0-7.2-0.8-10.8c-0.5-2.6-1.4-5-2.9-7.2c-2-3-4.7-3.5-7.7-1.3
		c-1.6,1.2-3.1,2.6-4.8,3.6c-6.1,3.5-12,3-17.5-1.5c-0.8-0.6-1.5-1.3-2.2-2c-1.7-1.8-3.1-1.4-4.5,0.3c-2.1,2.6-2.9,5.6-3.1,8.9
		c-0.3,5.8,0.7,11.4,1.8,17c1.5,7.4,2.1,14.9,1.8,22.4c-0.3,6-2.8,10.7-8.3,13.7c-3.1,1.7-6.1,1.4-9.2,0.1c-1.8-0.7-3.4-1.7-4.3-3.6
		c-1-2.6-2.6-5-3.2-7.8c-1.6-6.2-2.1-12.5-3.1-18.8c-0.8-11.4-1.4-22.9-3.9-34.1c-0.4-2-1-3.9-1.9-5.7c-1.8-4-3.8-5-8.1-4.3
		c-1.2,0.2-2.3,0.7-3.5,0.9c-5.2,0.7-9.6-0.8-13.2-4.8C1241.8,768.2,1241,766.4,1240.5,764.3z"/>
	<path fill="#B9C4C8" d="M1280.7,844.5c1.1,0.9,2.2,1.8,3.3,2.7c4.2,2,7.7,5,11.7,7.3c6.1,3.5,12.6,6.1,19.2,8.2
		c2.6,0.8,5.2,1.4,7.9,1.9c11.5,2.5,23.1,2.7,34.8,1.4c14-2,26.7-7,37.8-15.7c10.2-8,17.7-18.4,24-29.7c3.7-6.6,6.8-13.6,9.8-20.6
		c0.9-2.1,0.4-4.6,2-6.5c0.2-0.1,0.4,0,0.4,0.2c0,0,0.1,0.1,0.1,0.1c0.4-2.4,1.3-4.7,2.1-7c0.5-1.4-0.4-2.2-1.1-3.1
		c2.6-1.6,3.3-4.2,3.8-7c0.5-2.7,1.5-5,4.3-6c1.5-0.5,1.3-2.1,2.2-3c0.7,2.3,1.3,4.5,3,6.4c0.6,0.7,0.5,1.8,0.3,2.9
		c-3.9,16.7-10,32.6-18.4,47.6c-0.8,1.5-0.6,3.1-1.5,4.4c-1-1.5-1.1,0.3-1.2,0.5c-4.7,7.6-10,14.7-16.2,21.2
		c-15.3,15.8-34.3,23.3-55.9,25.3c-10,0.9-19.8,0-29.6-1.5c-3.7,0.5-7.1-0.5-10.2-2.4c-10.6-3.5-20.7-8-29.9-14.4
		c-2.9-0.8-4.9-2.9-7.1-4.7c-3.4-2.8-6.7-5.9-9.3-9.5c-7.2-7.6-13.7-15.8-19.4-24.6c-0.7,0.5-0.2,1.2-0.5,1.7
		c-2.1-7.8-7.5-13.9-10.8-21.1c-3.2-7-6.6-13.8-9.4-21c-1.5-4-0.5-5.9,3.5-7.2c2-1.2,3.2,0.2,4.2,1.5c0.9,1.2,1.4,2.6,1.8,4
		c0.9,3,2.3,5.6,5.5,6.8c-1.5,1.1-1.9,2.4-0.8,4.2c1,1.5,1.4,3.3,2.5,4.8c3.8,8.4,8.6,16.3,13.8,23.9c2.7,4.2,5.9,8.1,8.9,12.1
		c2.5,2.5,4.5,5.5,7.2,7.9C1275.7,839.3,1278.5,841.6,1280.7,844.5z"/>
	<path fill="#192A31" d="M1442.9,767.9c0.2,2,0.4,3.8-2.5,4.1c-1.6,0.2-2.3,1.8-2.7,3.3c-0.3,1.1-0.6,2.3-0.8,3.5
		c-0.5,2.5-1.1,4.8-4.1,5.3c1,3.4-0.2,6.4-1.4,9.5c-5.6,20.5-15.9,38.4-31,53.2c-11.6,11.3-25.8,17.7-41.9,19.7
		c-0.5,0.1-1,0.4-1.4-0.1c-0.3-0.5,0.1-0.7,0.4-1c6.9-5.7,11.6-13.1,16.9-20.1c4.6-6.1,8.8-12.6,13.1-19c0.6-0.8,1.1-3.5,3.1-1.2
		c0.3,3.1-0.8,6.1,0.2,9.2c0.9,3,2.3,4.9,4.8,5c2.8,0.2,4.1-1.8,5.1-3.9c1.4-3,1.5-6.2,0.9-9.4c-0.8-4.6-2.6-8.8-3.7-13.3
		c-0.3-1.1-0.7-2.1-0.5-3.2c2.9-5.7,6.1-11.1,8.5-17c0.3-0.7,0.7-1.5,1.5-1.7c14.2-4.6,20.7-15.4,23.4-29.3c0.1-0.8,0-1.6,0.6-2.3
		c2.4,1.4,2.9,3.6,2.6,6.2c-0.3,1.9,0.5,2.5,2.3,2.3C1438.5,767.7,1440.7,767.9,1442.9,767.9z"/>
	<path fill="#21353D" d="M1256.8,817.1c-5.4-7.6-10.2-15.5-13.9-24c-0.6-3-2.8-5.7-1.3-9c-5-0.4-5.2-4.7-6.5-8
		c-1-2.3-1.9-4.5-4.9-4.6c-0.5-2.8,0.3-4.3,3.5-3.7c1,0.2,2-0.1,3,0.1c2.8,0.4,4.3-0.4,3.9-3.5c1.2,1.9,2.3,3.9,3.9,5.6
		c3.2,3.3,7.1,4.6,11.6,4.1c0.5,0.6,0.6,1.2,0.5,2c-0.7,9.1,1.2,18,2.4,27c0.2,1.3,0.3,2.6,0.4,3.9c0,3-0.9,5.9-1.3,8.9
		C1257.9,816.3,1257.7,817.1,1256.8,817.1z"/>
	<path fill="#44555B" d="M1266.8,843.7c5.2,5,10.6,9.9,16.4,14.2c-0.7,0.1-1.3,0.4-1.8,0.9c-4.8,4.2-10,3.2-13-2.6
		c-1.7-3.1-1.6-6.5-1.5-9.9C1266.8,845.5,1266.8,844.6,1266.8,843.7z"/>
	<path fill="#EFCF48" d="M1313.1,872.3c3.4,0.8,6.8,1.6,10.2,2.4c-0.1,3.2-0.2,6.4-1.5,9.4c-0.8,1.7-1.9,3.2-3.9,3.2
		c-2-0.1-3-1.6-3.7-3.4C1312.7,880,1313,876.2,1313.1,872.3z"/>
	<path fill="#21353D" d="M1390.1,825c-0.8-0.8-1,0.1-1.3,0.5c-5.8,9-11.9,17.8-18.4,26.4c-3.3,4.4-7,8.6-10.5,13
		c-0.5,0.7-1.5,0.6-2,1c-0.9,0.6,0.4,0.3,0.5,0.6c-7.8,1.7-15.6,1.4-23.5,0.8c-4.3-0.3-8.5-0.7-12.6-2.1c-0.6-0.4-0.9-1.1-1-1.8
		c-1-7.7-2.8-15.4-2.9-22.2c0.2,2.8-0.9,6.6-1.5,10.5c-0.4,2.9-0.9,5.7-1.4,8.6c-0.2,1.1-0.3,2.2-1.3,2.9
		c-11.1-3.3-21.4-8.4-30.2-16c10,2.4,16.7-2.8,17.3-13.4c0.5-9.1-1.2-17.9-2.8-26.7c-0.8-4-1.2-8.1-1-12.2c0.1-2.7,0.8-5.3,2.1-7.7
		c2.5-4.6,4.2-4.9,7.9-1.3c6.6,6.4,13.3,6.6,20.5,0.7c0.5-0.4,0.9-0.8,1.4-1.1c3.9-3.3,7.3-2.6,10,1.8c2.4,3.9,3,8.2,3.1,12.7
		c0.1,5,0.1,10,1.3,14.9c0.7,2.8,1.8,5.5,3.7,7.8c5.5,6.2,13.7,5.6,18.2-1.4c2.8-4.3,3.8-9.2,4.4-14.2c0.6-4.9,0.8-9.7,1.3-14.6
		c0.2-2.7,0.9-5.4,2.5-7.6c1.8-2.4,4.6-2.8,6.8-0.8c7.7,7.1,16.7,8.9,26.7,6.9c-2.3,5.8-5.2,11.3-8.1,16.8c-0.4,0.7-0.7,1.4-1.5,1.7
		c-2.1-1.1-2-3-2.1-4.3c-0.8,5.1-2.7,10.7-3.8,16.5C1391.5,822.8,1391.9,824.5,1390.1,825z"/>
	<path fill="#44555B" d="M1258.5,807c-0.7-5.1-1.4-10.2-2.1-15.3c-0.8-5.9-1.7-11.8-0.4-17.7c9.1-3,12.1-1.3,14.4,8
		c2.2,8.8,2.9,17.8,3.6,26.9c0.2,3,0.9,5.9,0.6,8.9c-2,2.8-3.7,3.5-6.8,2.5c-1.7-4.6-2.6-9.4-4.1-14.1c-1.1-3.3-2.5-6.5-2.6-10.1
		c-0.1-0.4-0.6,0.2-0.3,0c0.1-0.1,0.2,0,0.2,0.2c0.2,3.3-0.7,6.5-1.5,9.7C1259.5,806.6,1259.1,807,1258.5,807z"/>
	<path fill="#21353C" d="M1268.1,820.2c2.6,0.3,4.6-1,6.6-2.4c1,6.4,2,12.8,3,19.3c-1.6,0.8-3.2,0.3-4.9,0c-2.7-2.4-5-5.1-7.2-8
		C1266.7,826.1,1266.9,823,1268.1,820.2z"/>
	<path fill="#43565A" d="M1272.8,837c1.6-0.8,3.2-0.4,4.9,0c0.7,2.6,2.5,4.8,3,7.5C1277.7,842.4,1275.2,839.8,1272.8,837z"/>
	<path fill="#EFCF48" d="M1268.1,820.2c-0.1,3.2-0.1,6.3-2.5,8.8c-3.3-3.7-6.3-7.7-8.9-11.9c0.6-3.4,1.2-6.8,1.8-10.2
		c0.8-3.8,1.6-7.5,2.4-11.3C1263.6,803.8,1266.9,811.6,1268.1,820.2z"/>
	<path fill="#EFCF48" d="M1314.2,863.2c1.3-7.9,2.6-15.9,3.9-23.8c0.2,0,0.4,0,0.6-0.1c1.2,8.6,2.4,17.3,3.6,25.9
		C1319.5,864.9,1316.8,864.1,1314.2,863.2z"/>
	<path fill="#F8F9F9" d="M1431.4,793.6c0.5-3.2,0.9-6.3,1.4-9.5c1.4-0.1,2.7-0.3,1.9,2c-1,2.6-1.6,5.4-2.6,7.9
		C1431.6,795,1431.7,793.6,1431.4,793.6z"/>
	<path fill="#F7F9F9" d="M1241.6,784.1c0.2,3,1.4,5.9,1.3,9c-1.8-2.3-2.9-5-3.8-7.7C1238.3,783,1240.7,784.6,1241.6,784.1z"/>
	<path fill="#EFCF48" d="M1390.1,825c1.7-7.1,3.4-14.1,5.3-21.9c0.9,2.5,1.6,4.3,2.3,6.2c1.2,5.8,3.9,11.1,4.7,17
		c0.5,3.7,0.3,7.4-1.6,10.8c-1.2,2.1-2.9,3.7-5.5,3.3c-2.8-0.5-4.3-2.3-5.2-5.1C1389,831.8,1389.7,828.5,1390.1,825z"/>
</g>
</svg>
