<?xml version="1.0" encoding="utf-8"?>
<!-- Generator: Adobe Illustrator 26.0.1, SVG Export Plug-In . SVG Version: 6.00 Build 0)  -->
<svg version="1.2" baseProfile="tiny" id="Layer_1" xmlns="http://www.w3.org/2000/svg" xmlns:xlink="http://www.w3.org/1999/xlink"
	 x="0px" y="0px" viewBox="0 0 366.6 295.9" overflow="visible" xml:space="preserve">
<path fill="#192A31" d="M333.1,123.1c-7.5,52.4-14.9,104.8-22.4,157.2c-1.2,8.3-9.6,15.6-18.1,15.6c-72,0-143.9,0-215.9,0
	c-7.3,0-16.2-7.4-17.2-14.8c-4.2-28.5-8.2-57-12.3-85.5c-4.1-28.8-8.2-57.7-12.3-86.5c-0.5-0.9-0.7-2.1,0-2.8c1-0.9,1.8,0.2,2.5,0.8
	c1.5,1.5,2.7,3.4,3.9,5.1c7.1,10.4,14.9,20.4,23.6,29.5c1.6,1.7,3.2,3.4,3.9,5.7c0.8,3.4,0.3,6.9,0.5,10.4c0.3,6,2.2,11.3,7.2,15.2
	c4.5,3.5,8.6,3.5,13.1,0c1.5-1.2,2.9-2.8,5.1-2.8c3.1,0.3,5.5,2.3,8,3.9c11.7,7.4,24.2,13.1,37.3,17.4c2.1,0.7,4.6,1,5.8,3.4
	c0.9,3.3,0.4,6.6,0.5,9.9c0.1,3.6,0.8,7,2.6,10c2.2,3.7,5.2,3.8,8,0.5c2.7-3.1,2.7-7,3.4-10.8c0.4-1.9,0.1-4,1.3-5.8
	c2.1-1.6,4.4-1,6.7-0.6c9.2,1.3,18.5,2.5,27.8,2.4c24-0.3,47.3-4.5,69.2-14.9c19.5-9.3,35.7-23,48.9-40.1
	c5.2-6.7,10.4-13.4,14.6-20.8c0.7-1.3,1.4-2.8,2.8-3.4C333.5,120.5,333.4,121.8,333.1,123.1z"/>
<path fill="#EFCF48" d="M24.2,15.1c-0.7-2.7,0.4-4.5,2.1-6.7C31.4,1.9,37.7,0,46.1,0c93.8,0.3,187.6,0.3,281.4,0
	c6.4,0,10.8,1.8,14.2,6.8c1,8.1-2.1,15.4-5.2,22.5c-6.9,15.5-17.9,26.6-34.7,31.1c-15.4,3.9-29.3,0.8-41.9-8.7
	c-1.1-0.8-2.1-1.7-3.2-2.4c-4-2.8-7.5-2.1-10.1,2.1c-2,3.1-2.9,6.7-3.3,10.4c-0.8,7.9-1,15.9-2.1,23.9c-1.1,7.8-2.5,15.5-6.4,22.4
	c-4.1,7.3-9.8,12.2-18.6,12.2c-8.7,0-14.1-5.2-18.2-12.1c-4.6-7.9-5.2-16.8-5.5-25.6c-0.2-6-0.1-12-1.3-17.9
	c-0.9-4.3-2.4-8.3-4.8-12c-3.4-5.1-7.9-5.8-12.7-2.2c-2.7,2-5.1,4.3-8,6c-10.2,5.9-20,5.1-29.1-2.5c-1.3-1.1-2.5-2.2-3.7-3.4
	c-2.8-2.9-5.2-2.3-7.5,0.5c-3.5,4.3-4.9,9.3-5.2,14.8c-0.6,9.6,1.1,18.9,3,28.2c2.6,12.3,3.5,24.7,2.9,37.2
	c-0.5,10-4.7,17.9-13.8,22.8c-5.1,2.8-10.2,2.4-15.4,0.1c-3.1-1.2-5.7-2.9-7.2-6c-1.6-4.3-4.3-8.3-5.3-12.9
	c-2.7-10.3-3.5-20.9-5.1-31.3c-1.3-19-2.4-38.1-6.5-56.8c-0.7-3.3-1.7-6.4-3.1-9.4c-3-6.6-6.3-8.4-13.5-7.1c-2,0.3-3.8,1.1-5.8,1.4
	c-8.7,1.2-15.9-1.4-21.9-7.9C26.3,21.6,24.9,18.6,24.2,15.1z"/>
<path fill="#B9C4C8" d="M91,148.5c1.8,1.5,3.6,3,5.4,4.5c7,3.3,12.8,8.3,19.4,12.1c10.1,5.9,20.9,10.1,32,13.6
	c4.3,1.3,8.7,2.3,13.1,3.2c19.2,4.1,38.5,4.6,57.9,2.4c23.2-3.3,44.4-11.6,62.8-26.1c16.9-13.4,29.4-30.7,39.9-49.4
	c6.2-11,11.4-22.6,16.2-34.2c1.5-3.5,0.7-7.7,3.3-10.7c0.4-0.1,0.6,0,0.7,0.3c0,0.1,0.1,0.1,0.2,0.2c0.6-4,2.2-7.8,3.4-11.6
	c0.8-2.4-0.7-3.6-1.8-5.1c4.4-2.6,5.5-7,6.3-11.6c0.8-4.4,2.5-8.3,7.2-9.9c2.4-0.9,2.2-3.5,3.7-5.1c1.1,3.8,2.2,7.5,5,10.6
	c1,1.1,0.9,3,0.5,4.8c-6.6,27.8-16.7,54.3-30.7,79.3c-1.4,2.4-1,5.2-2.5,7.4c-1.7-2.5-1.8,0.4-2,0.8c-7.8,12.7-16.6,24.5-27,35.2
	c-25.4,26.3-57.1,38.8-93,42c-16.6,1.5-32.9,0-49.2-2.4c-6.2,0.8-11.7-0.9-17-4c-17.6-5.8-34.4-13.3-49.8-23.9
	c-4.8-1.3-8.2-4.9-11.8-7.9c-5.7-4.7-11.1-9.8-15.5-15.8c-11.9-12.7-22.7-26.3-32.3-40.9c-1.2,0.8-0.3,1.9-0.8,2.8
	c-3.4-13-12.5-23.1-18-35c-5.4-11.6-11-23-15.7-35c-2.6-6.6-0.9-9.8,5.9-12c3.3-1.9,5.2,0.3,7,2.5c1.5,2,2.3,4.4,3.1,6.7
	c1.6,5,3.9,9.3,9.1,11.2c-2.5,1.9-3.2,4-1.3,6.9c1.6,2.5,2.3,5.5,4.1,7.9c6.4,14,14.3,27.1,22.9,39.8c4.5,7.1,9.9,13.5,14.8,20.2
	c4.2,4.2,7.5,9.1,11.9,13.1C82.7,139.9,87.4,143.7,91,148.5z"/>
<path fill="#192A31" d="M360.8,21.1c0.4,3.4,0.6,6.4-4.2,6.8c-2.6,0.3-3.8,3-4.5,5.4c-0.5,1.9-1,3.9-1.3,5.8c-0.8,4.1-1.8,8-6.8,8.9
	c1.7,5.6-0.4,10.7-2.3,15.8c-9.3,34.1-26.4,63.9-51.6,88.5c-19.3,18.8-43,29.4-69.8,32.8c-0.8,0.2-1.6,0.7-2.3-0.2
	c-0.5-0.8,0.2-1.2,0.7-1.6c11.4-9.4,19.3-21.8,28.1-33.4c7.7-10.2,14.6-21,21.9-31.6c1-1.4,1.8-5.8,5.2-2c0.5,5.1-1.3,10.2,0.3,15.3
	c1.5,5.1,3.9,8.1,8,8.4c4.7,0.3,6.8-2.9,8.4-6.5c2.3-5,2.4-10.3,1.5-15.6c-1.2-7.6-4.2-14.7-6.1-22.1c-0.4-1.8-1.2-3.5-0.8-5.4
	c4.8-9.4,10.2-18.5,14.2-28.3c0.5-1.2,1.1-2.4,2.5-2.9c23.7-7.7,34.5-25.6,39-48.7c0.2-1.3,0-2.7,0.9-3.8c3.9,2.4,4.8,6.1,4.2,10.3
	c-0.4,3.1,0.8,4.1,3.9,3.9C353.5,20.8,357.2,21,360.8,21.1z"/>
<path fill="#21353D" d="M51.2,103c-9-12.6-16.9-25.8-23.1-40c-0.9-5-4.7-9.5-2.1-15c-8.3-0.7-8.6-7.9-10.8-13.4
	c-1.6-3.9-3.2-7.4-8.1-7.6c-0.8-4.6,0.5-7.2,5.8-6.2c1.6,0.3,3.3-0.2,4.9,0.1c4.6,0.7,7.2-0.6,6.4-5.8c2.1,3.2,3.8,6.5,6.5,9.3
	c5.3,5.5,11.8,7.6,19.3,6.8c0.9,0.9,1,2.1,0.9,3.2c-1.2,15.2,1.9,30,4,44.9c0.3,2.1,0.5,4.3,0.6,6.4c0.1,5-1.6,9.8-2.2,14.8
	C53,101.6,52.7,102.9,51.2,103z"/>
<path fill="#44555B" d="M67.9,147.2c8.7,8.3,17.6,16.5,27.3,23.7c-1.2,0.1-2.1,0.7-3,1.5c-8.1,7.1-16.6,5.4-21.7-4.3
	c-2.8-5.2-2.6-10.8-2.5-16.4C68,150.2,67.9,148.7,67.9,147.2z"/>
<path fill="#EFCF48" d="M144.9,194.8c5.7,1.3,11.3,2.7,17,4c-0.2,5.3-0.4,10.6-2.6,15.6c-1.3,2.9-3.2,5.4-6.5,5.3
	c-3.3-0.1-5-2.7-6.2-5.7C144.2,207.7,144.7,201.2,144.9,194.8z"/>
<path fill="#21353D" d="M273,116.2c-1.3-1.3-1.6,0.2-2.1,0.9c-9.7,15-19.8,29.7-30.6,43.9c-5.6,7.4-11.6,14.4-17.4,21.6
	c-0.9,1.1-2.5,1-3.4,1.7c-1.4,1,0.6,0.5,0.8,1c-12.9,2.8-26,2.4-39.1,1.3c-7.1-0.6-14.2-1.2-21-3.5c-1.1-0.7-1.4-1.8-1.6-3
	c-1.6-12.9-4.6-25.6-4.9-36.9c0.3,4.7-1.5,11-2.4,17.4c-0.7,4.8-1.5,9.5-2.4,14.2c-0.3,1.8-0.5,3.7-2.2,4.8
	c-18.5-5.6-35.5-14-50.3-26.6c16.7,4,27.7-4.7,28.7-22.2c0.8-15.1-1.9-29.8-4.7-44.5c-1.2-6.7-2-13.5-1.6-20.3
	c0.2-4.6,1.4-8.9,3.5-12.9c4.2-7.7,7-8.2,13.2-2.1c10.9,10.6,22.2,11,34.1,1.1c0.8-0.6,1.6-1.3,2.3-1.9c6.6-5.4,12.2-4.4,16.7,3.1
	c3.9,6.5,4.9,13.7,5.2,21.1C194,82.6,194,91,196,99.1c1.1,4.7,3,9.2,6.2,12.9c9.1,10.4,22.8,9.3,30.3-2.3c4.6-7.2,6.3-15.3,7.3-23.6
	c1-8.1,1.4-16.2,2.1-24.3c0.4-4.5,1.4-8.9,4.2-12.6c3.1-4,7.7-4.6,11.3-1.3c12.8,11.9,27.7,14.9,44.4,11.5
	c-3.8,9.7-8.7,18.7-13.5,27.9c-0.6,1.2-1.2,2.4-2.6,2.8c-3.6-1.8-3.3-5-3.5-7.1c-1.3,8.6-4.4,17.9-6.4,27.5
	C275.4,112.5,276,115.3,273,116.2z"/>
<path fill="#44555B" d="M54.1,86.1c-1.2-8.5-2.3-16.9-3.4-25.4c-1.3-9.8-2.8-19.6-0.7-29.5C65,26.3,70,29,73.9,44.5
	c3.7,14.7,4.9,29.7,6,44.7c0.4,4.9,1.6,9.8,1,14.9c-3.4,4.7-6.1,5.8-11.2,4.2c-2.9-7.6-4.3-15.7-6.8-23.4C61,79.4,58.7,74,58.5,68.1
	c-0.2-0.6-1,0.3-0.4,0c0.2-0.1,0.3,0,0.3,0.4c0.3,5.6-1.2,10.9-2.5,16.2C55.7,85.5,55.1,86.1,54.1,86.1z"/>
<path fill="#21353C" d="M70,108c4.3,0.6,7.6-1.7,10.9-4c1.7,10.7,3.4,21.4,5,32c-2.7,1.3-5.4,0.5-8.1,0c-4.5-4-8.4-8.5-11.9-13.4
	C67.7,117.9,68.1,112.8,70,108z"/>
<path fill="#43565A" d="M77.9,136.1c2.7-1.4,5.4-0.6,8.1,0c1.1,4.4,4.2,8,5,12.5C86,145,81.8,140.7,77.9,136.1z"/>
<path fill="#EFCF48" d="M70,108c-0.1,5.2-0.1,10.5-4.1,14.7c-5.6-6.1-10.4-12.7-14.8-19.7c1-5.6,2-11.3,2.9-16.9
	c1.3-6.3,2.7-12.5,4-18.8C62.5,80.8,68.1,93.9,70,108z"/>
<path fill="#EFCF48" d="M146.7,179.6c2.2-13.2,4.4-26.4,6.6-39.6c0.3,0,0.6-0.1,1-0.1c2,14.4,4,28.7,6,43.1
	C155.5,182.6,151.1,181.2,146.7,179.6z"/>
<path fill="#F8F9F9" d="M341.7,63.8c0.8-5.3,1.5-10.5,2.3-15.8c2.3-0.2,4.5-0.4,3.1,3.3c-1.6,4.3-2.6,8.9-4.3,13.2
	C342.1,66.2,342.2,63.9,341.7,63.8z"/>
<path fill="#F7F9F9" d="M25.9,48.1c0.3,5,2.3,9.9,2.1,15c-3-3.8-4.8-8.3-6.3-12.8C20.5,46.3,24.5,48.8,25.9,48.1z"/>
<path fill="#EFCF48" d="M273,116.2c2.9-11.8,5.7-23.5,8.9-36.4c1.6,4.1,2.7,7.2,3.9,10.3c2,9.6,6.4,18.5,7.7,28.3
	c0.8,6.2,0.5,12.3-2.7,17.9c-2,3.6-4.9,6.1-9.2,5.4c-4.7-0.8-7.2-3.8-8.6-8.4C271.2,127.5,272.4,121.9,273,116.2z"/>
</svg>
