<?xml version="1.0" encoding="utf-8"?>
<!-- Generator: Adobe Illustrator 26.0.1, SVG Export Plug-In . SVG Version: 6.00 Build 0)  -->
<svg version="1.2" baseProfile="tiny" id="Layer_1" xmlns="http://www.w3.org/2000/svg" xmlns:xlink="http://www.w3.org/1999/xlink"
	 x="0px" y="0px" viewBox="0 0 484.7 125.2" overflow="visible" xml:space="preserve">
<path fill="#EFCF48" d="M155.5,24.1c-5.5-2-11.4-2.6-16.4-5.8c-4.1-2.6-4.1-5,0.1-7.4c6.8-3.8,14.4-5.1,22-6.2
	c46.6-6.3,93.3-7.1,139.7,1.7c11.4,2.2,22.4,1.7,33.7,1.7c37.9,0,75.6,1.7,112.7,9.9c7.8,1.7,15.5,3.9,22.8,7.1
	c3.4,1.4,6.6,3.1,9.5,5.4c6.7,5.4,6.9,10.6,0.1,15.9c-9.6,7.4-21.3,10-32.8,12.7c-19.8,4.6-40,7-60.3,8.3c-1.9,0.1-3.9,0.4-6.4,0.6
	c2.5,2.3,4.6,3.9,6.3,5.9c5.2,5.9,5.1,12.1-0.3,17.8c-6,6.4-13.8,9.7-21.8,12.7c-20.2,7.4-41.2,10.8-62.4,12.5
	c-37.1,3.1-74.2,2.3-110.9-4.7c-13.4-2.6-26.7-5.8-38.9-12.2c-7.1-3.7-14.3-7.4-16-16.5c-0.4-2.4-2.6-1.6-4.1-1.6
	c-17.5-0.5-35-0.8-52.4-2.6C58.7,77.1,37.9,74.5,18,67.4c-5.2-1.9-10.3-4-14.4-7.8c-4.7-4.3-4.8-9,0.1-13.2C11,40.2,20,37.7,29,35.3
	c22.1-5.9,44.8-8.3,67.6-9.8C116.2,24.1,135.8,24.1,155.5,24.1z"/>
<path fill="#EFCF48" d="M78.5,93.1c20.4,0,36.6,1.2,52.3,6.1c2.8,0.9,5.6,2.1,8.2,3.6c6.6,3.9,6.6,8.4,0.1,12.4
	c-6.1,3.7-12.9,5.4-19.7,6.6c-27,4.7-53.9,4.7-80.7-1.5c-4.1-0.9-8-2.3-11.7-4.3c-2.9-1.6-6.3-3.2-6.1-7.1c0.1-3.6,3.1-5.3,6-6.8
	c7.6-4,16-5.5,24.3-6.9C61.6,93.6,72,93,78.5,93.1z"/>
<path fill="#EFCF48" d="M433,96.3c-9.1,0-16.5-0.7-23.6-3.6c-2.1-0.9-4.7-1.7-4.5-4.6c0.1-2.6,2.4-3.5,4.4-4.2c15-5.1,30-4.9,45-0.1
	c2.1,0.7,4.7,1.8,4.5,4.6c-0.2,2.7-2.8,3.7-4.9,4.5C446.7,95.6,439.1,96.4,433,96.3z"/>
</svg>
