<?xml version="1.0" encoding="utf-8"?>
<!-- Generator: Adobe Illustrator 26.0.1, SVG Export Plug-In . SVG Version: 6.00 Build 0)  -->
<svg version="1.2" baseProfile="tiny" id="Layer_1" xmlns="http://www.w3.org/2000/svg" xmlns:xlink="http://www.w3.org/1999/xlink"
	 x="0px" y="0px" viewBox="0 0 307.2 801.3" overflow="visible" xml:space="preserve">
<path fill="#EFC100" d="M260.9,135.8c0.1,15,0.2,30,0.2,45c0,49.6-0.1,99.3-0.1,148.9c-0.8,0.7-1.9,1-2.8,0.6
	c-5.8-2.8-12.1-1.9-18.2-1.9c-66.9,0-133.8,0-200.7,0c-6.6,0-6.6,0-6.6-6.4c0-38.9,0-77.9,0-116.8c0.4-3.3,2.8-5.6,3.9-8.6
	c3-8.1,3.9-16.5,4.2-25c0.2-7.4,1.1-14.6,2.4-21.8c0.7-3.8,1.9-7.5,4.3-10.6c2-2.5,3.8-2.3,5.5,0.4c1.1,1.7,1.6,3.7,2.1,5.6
	c1.9,7.6,3.3,15.3,4.9,23c1.4,7,4.4,10.2,9.8,11c6,0.9,10.9-1.8,14-8.2c2.5-5.1,5.3-10,7-15.4c0.3-0.9,0.7-1.9,1.2-2.7
	c0.8-1.3,1.7-2.7,3.5-2.3c1.8,0.4,2,2.1,2.1,3.6c0.2,7.2,0.7,14.3-0.3,21.4c-0.8,5.6,0.3,11,1.3,16.3c0.5,2.8,2,5.4,5.2,6.1
	c3.3,0.7,5.9-0.8,7.9-3.2c6.1-7.6,8-16.7,9.3-26c1.7-12.9,1.7-25.9,4.1-38.7c0.7-3.9,1.5-7.9,3.1-11.6c0.8-1.9,1.9-3.7,4.4-3.4
	c2.3,0.3,3.4,2,3.9,4c0.9,3.7,1.3,7.5,1.4,11.4c0.3,12-0.5,23.9-1,35.9c-0.2,4.4,0.5,8.7,1.7,12.8c1.6,5.4,6.1,9.4,10.4,9.4
	c4.4,0,8.5-3.9,9.9-9.8c1.2-5,1.8-10.2,2.3-15.3c0.6-7.1,2.6-13.8,6.5-19.7c3.5-5.5,7.5-5.1,10.3,0.7c1.2,2.6,2.2,5.3,2.9,8
	c1.4,5.7,5.1,9.7,9.5,13c6,4.6,11.8,2.7,13.8-4.5c2.1-7.5,3.3-15.3,4-23.1c0.2-2.8,0.4-5.7,1.2-8.4c1.5-4.9,5.4-6.3,9.7-3.4
	c3.1,2.1,4.7,5.1,5.7,8.6c1.4,5,2.3,10.1,2.3,15.3c0,6.8-0.2,13.7,0.1,20.5c0.2,5.7,1.2,11.3,5,15.9c4,4.7,9.1,4.8,13.4,0.4
	c2.1-2.2,3.6-4.7,4.6-7.6c2.4-7.3,3.5-14.9,4.1-22.5c0.4-6.6,2.4-12.7,4.9-18.8C258.9,136.9,259.4,135.8,260.9,135.8z"/>
<path fill="#FFD527" d="M33.3,203.6c0,40.1-0.1,80.2-0.2,120.3c0,2.3,0.4,2.9,3,2.9c71.7-0.1,143.5,0,215.2-0.3c3.9,0,6,3.4,9.6,3.1
	c0.6,4,4.3,5.3,6.9,7.5c2.9,2.5,4.4,5,4.1,8.9c-0.3,4.8,0.1,9.6,0.2,14.5c1,1.2,1.5,2.6,1.5,4.2c0.2,6.7,0.2,13.3,0,20
	c0,1.5-0.5,2.9-1.5,4.2c-0.1,6.4-0.1,12.9-0.2,19.3c0,1.9,0.7,4-0.6,5.8c-2.3-4.3-6.2-4.6-10.5-4.6c-78,0.1-156.1,0.1-234.1,0
	c-3.3,0-6.7,0.7-9.6-1.6c-0.1-6.1-0.2-12.1-0.3-18.2c-2-9.9-2-19.8,0-29.7c-2-13.2,1.1-24.1,13.6-30.9c2.6-1.4,2-4,2-6.2
	c0-61.8,0-123.5,0-185.3c0-19.3,0-38.6,0.1-57.9c0-1.6-0.6-3.3,0.6-4.8c2,1.8,1.7,4.2,1.7,6.5c0.1,38.6,0,77.1,0,115.7
	C34.8,199.2,34.4,201.5,33.3,203.6z"/>
<path fill="#EFCF48" d="M33.3,203.6c0-40.8,0-81.6-0.1-122.5c0-2.2-0.1-4.3-0.2-6.5c1.1-3.6,3.2-6.6,5.6-9.4
	c5.8-6.7,13.5-5.9,18,1.7c3.8,6.4,4,13.7,4.3,20.8c0.5,8.6,0.4,17.3,2.1,25.8c0.9,4.5,2.7,8.6,5.6,12.1c7.6,8.9,19.8,7.5,25-3.1
	c3.4-6.9,3.8-14.4,3.7-22c-0.1-7-0.6-14-0.9-21c-0.1-2.5-0.1-5,0.1-7.5c0.7-7,3.2-10,8.4-10.6c5.5-0.6,11.3,3.2,12.8,9
	c1.1,4.5,1.6,9.2,2.2,13.8c0.4,2.8,0.9,5.6,1.9,8.2c2.3,5.8,6.9,9.1,12.7,8.3c7.3-1,10.3-3.3,10.9-10.1c0.7-7.8,0.6-15.6,1.3-23.4
	c0.8-9.1,3.9-13.1,9.7-13.7c10-1,16.9,3.1,19.8,11.5c2.2,6.5,1.8,13.1,1.3,19.8c-0.7,10.5-3,20.8-2.9,31.3c0,5-0.2,10,1.9,14.7
	c2.4,5.3,6.1,8.7,12.2,8.7c6.1,0,9.9-3.6,12-9c2.6-6.8,2.9-14,3-21.2c0.3-12,0-24,0.1-36c0-6.4,1-12.6,3.4-18.6
	c2.5-6.3,6.7-9.3,11.9-8.7c4.9,0.5,8.1,4.1,9.1,11c1.9,13.4,1.5,26.9,2.1,40.4c0.2,4.5,2.2,7.5,5.9,9.7c5.8,3.3,9.8,1.9,11.7-4.6
	c2-6.7,2.8-13.7,2.9-20.7c0.1-6,0-12,0.4-18c0.2-3.4,0.5-7.4,5.4-7.6c4.6-0.2,5.3,3.5,6,6.7c2.3,11.5,3.3,23.1,1.9,34.8
	c-1.5,12.5-4.2,24.9-3.7,37.6c-5,9.3-5.4,19.6-6.9,29.8c-1,7-1.7,14.1-6.1,20.2c-2.9,4-6.3,6.7-11.2,5.9c-5.2-0.9-8-5.1-9.6-9.9
	c-1.6-4.7-2.1-9.6-2.1-14.7c0-10.4,1-21-1.9-31.2c-1.1-3.8-2.7-7.2-6.3-9.1c-3.4-1.8-6-0.7-6.6,3.1c-1.2,7.5-2,15.1-3.1,22.6
	c-0.6,3.8-1.2,7.6-2.4,11.1c-2.3,6.8-10,8.3-15.9,3.3c-4.6-3.9-8.8-8.1-10-14.5c-0.5-2.6-1.6-5.1-2.7-7.5c-0.7-1.6-1.1-3.8-3.4-3.8
	c-2,0-3.2,1.7-4.2,3.3c-3.5,5.6-5.7,11.7-6.3,18.2c-0.5,5.3-1.2,10.5-2.1,15.7c-1.3,7.1-6.3,12.5-11.6,12.5
	c-5.2,0-11.5-6.7-12.4-13.1c-1.2-7.9-0.8-15.8-0.3-23.8c0.7-11.1,1.1-22.3-0.7-33.4c-0.4-2.2-1-4.2-3.3-4.3
	c-2.3-0.2-2.8,2.3-3.2,3.9c-2.5,8.8-3.8,17.8-4.6,26.8c-1.2,13.6-1,27.5-6.6,40.5c-1,2.3-2,4.5-3.4,6.6c-2.8,4.1-6.5,7.3-11.7,5.7
	c-4.9-1.6-5.6-6.4-6.3-11c-1.6-9.9,0.8-19.8,0-29.8c-0.2-2.5,1.4-6.7-1.1-7.1c-2.8-0.5-2.6,3.9-3.7,6.2c-2.7,5.5-5.1,11.2-8,16.6
	c-3.1,5.7-8.6,7.4-14.5,6.2c-5.4-1-8.9-4.4-10-10.4c-1.6-8.8-3.7-17.5-5.6-26.2c-0.2-0.8-0.3-1.7-0.7-2.4c-0.7-1.2-0.7-3.4-2.5-3.2
	c-0.9,0.1-1.9,1.7-2.5,2.8c-2.8,4.9-3.6,10.3-4.2,15.7c-1,8.9-1.1,17.9-2.2,26.7C40.1,190.8,39.3,198.3,33.3,203.6z"/>
<path fill="#54A300" d="M178.2,599.7c0,54.8-0.1,109.6-0.1,164.4c0,20.1-8.9,31.6-28.8,35.9c-13.6,3-26.5,0.8-37.9-7.7
	c-7.8-5.9-11.5-13.6-11.5-23.7c0.2-56.3,0.1-112.6,0-168.9c1.8-1.9,4.3-1.6,6.5-1.6c21.7-0.1,43.4-0.1,65.1,0
	C173.9,598.1,176.3,597.8,178.2,599.7z"/>
<path fill="#848C8F" d="M272.1,388.8c0-9.4,0-18.9,0-28.3c7.5,0,15-0.1,22.5,0c7.3,0.1,12.5,5.4,12.5,12.6c0,25.1-0.2,50.3,0.1,75.4
	c0.1,6.7-2.9,10.2-8.4,12.6c-24.3,10.5-48.6,20.9-72.9,31.4c-22.8,9.8-45.5,19.6-68.4,29.2c-3.3,1.4-4.4,3.2-4.3,6.7
	c0.2,11,0.1,22,0,33c-0.5,0.7-1.2,1.2-2,1.3c-8.1,0.8-16.2,0.8-24.2,0c-0.8-0.1-1.5-0.6-2-1.3c0.1-15.8,0.3-31.6,0.1-47.4
	c-0.1-6.8,3.1-10.6,8.7-13.1c31.3-13.5,62.6-26.9,93.9-40.4c15.7-6.8,31.4-13.6,47.2-20.2c3-1.3,4.3-2.8,4.2-6.3
	c-0.2-12.8-0.1-25.6-0.1-38.5C279,387.4,279.6,389,272.1,388.8z"/>
<path fill="#E8C621" d="M17,407.7c82.4,0,164.9,0,247.3-0.1c4.9,0,7.6,0.9,6.9,6.3c-2.3,3.1-6.6,4.6-8.2,7.8
	c-3.9,7.9-10.7,6.2-17,6.2c-69.2,0.1-138.4,0-207.7,0.1c-3.9,0-7-0.8-9.8-3.7c-2.3-2.4-4.8-4.7-7.6-6.5
	C17.2,415.3,15.9,412.1,17,407.7z"/>
<path fill="#4C9302" d="M125,561.5c9.4,0,18.9,0,28.3,0c8.9,0.1,17.9,0.3,26.8,0.2c3,0,4,0.7,3.9,3.8c-0.2,9.4-0.4,18.9,0.1,28.3
	c0.2,4.8-1.2,6.6-5.9,5.9c-26.1,0-52.1,0-78.2,0c-5,0.9-6.4-1.2-6.1-6.1c0.5-9.3,0.3-18.6,0.1-27.9c-0.1-3.4,1-4.1,4.2-4.1
	C107.1,561.8,116,561.6,125,561.5z"/>
<path fill="#EFCF48" d="M75.8,75.9C71.7,55.1,63.1,35.3,65,13.8c0.2-2.5,0.7-5,1.4-7.3c1.3-4,4.2-6.5,8.5-6.5c4.3,0,7.2,2.4,8.5,6.4
	c1.8,5.8,2.4,11.7,2.2,17.7c-0.7,14.7-5.3,28.7-7.9,43.1C77.2,70.1,76.4,73,75.8,75.9z"/>
<path fill="#EFCF48" d="M187.3,71.8c-2.5-10.8-5.2-21.6-7.4-32.5c-2-9.8-0.9-19.5,1.4-29.2c0.8-3.4,2.3-6.7,6.2-6.9
	c4.1-0.3,6.3,2.8,7.4,6.3c2.3,7,3.4,14.3,2.9,21.6C196.6,45,191.2,58,187.3,71.8z"/>
<path fill="#EFCF48" d="M128.4,67.1c-1.1-14.8-4.7-27.8-4.2-41.3c0.1-2.8,0.5-5.6,1-8.4c0.4-2.7,1.8-4.9,4.8-4.9
	c2.7,0,4,2.1,4.7,4.5c1.9,6.6,1.6,13.2,0.4,19.8c-1.7,9.1-3.6,18.3-5.4,27.4C129.6,64.7,129.2,65.3,128.4,67.1z"/>
<path fill="#858D8F" d="M16.7,359.9c0,9.9,0,19.8,0,29.7c-4.2-1.2-8.8-0.9-12.2-4.5c-4.2-4.4-5.6-9.3-3.7-14.9
	c1.9-5.7,6-8.9,12.1-9.5C14.2,360.5,15.5,360.1,16.7,359.9z"/>
<path fill="#EFCF48" d="M242.7,52.4c-2.3-9.6-5-18.9-5.1-28.5c0-2.1,0.3-4.3,0.7-6.4c0.5-2.5,1.4-5.2,4.3-5.5c3.1-0.3,4,2.5,4.8,4.8
	c1.9,5.4,1.4,10.9,0.1,16.3C246,39.6,244.3,46,242.7,52.4z"/>
<path fill="#89C14D" d="M122.1,680.6c-0.7,21.8-1.4,43.6-1,65.4c0.1,4.8-2.6,7.6-6.7,7.6c-4.5,0-6.6-3-7.1-6.9
	c-0.4-3.3-0.2-6.7-0.2-10c0-23.5,0.1-47,0.2-70.5c0-5.1,0.5-10.3,0.8-15.4c0.2-4.2,2.5-6.4,6.7-6.3c4,0.1,6,2.2,6.4,6.2
	C121.8,660.7,122.4,670.6,122.1,680.6z"/>
<path fill="#88C14C" d="M108.1,618.8c-0.3-3.2,0.2-6.3,1.5-9.2c1.4-3,3.4-5.4,7.2-4.9c4,0.5,5.7,3.4,6.1,6.8
	c0.6,4.8,0.2,9.7-1.2,14.3c-0.9,3.3-2.8,6.1-7,5.9c-3.9-0.1-5.3-2.8-6.3-6C107.8,623.4,108.2,621.1,108.1,618.8z"/>
<path fill="#80B24B" d="M109.1,581c0,0.8,0.2,2.2-0.3,3.4c-1.1,2.6-2.7,5.4-6,4.9c-3-0.4-5-2.5-4.8-5.9c0.1-2.3,0-4.6-0.1-6.9
	c-0.1-3.4,1.5-5.3,4.8-5.7c3.2-0.4,4.7,1.5,5.7,4.4C109.1,576.9,109,578.7,109.1,581z"/>
</svg>
