<?xml version="1.0" encoding="utf-8"?>
<!-- Generator: Adobe Illustrator 26.0.1, SVG Export Plug-In . SVG Version: 6.00 Build 0)  -->
<svg version="1.2" baseProfile="tiny" id="Layer_1" xmlns="http://www.w3.org/2000/svg" xmlns:xlink="http://www.w3.org/1999/xlink"
	 x="0px" y="0px" viewBox="0 0 145.1 140.7" overflow="visible" xml:space="preserve">
<path fill="#EFCF48" d="M74.5,108.2c-2.1,3-3.6,5.8-5.6,8.2c-6.6,7.9-16.5,6.7-21-2.6c-2.9-5.8-3.1-11.9-1.4-18
	c0.8-2.9,0.7-4.1-2.6-4.6c-3.7-0.6-7.4-1.9-11-3.2c-6.3-2.3-10.3-6.7-10.8-13.6c-0.5-6.7,3-11.4,8.5-14.7c5.4-3.3,11.4-4.8,17.6-4.6
	c3.7,0.1,4-1.1,3.4-4.3c-2.2-11.6,5.3-20.8,15.7-19.3c6.4,0.9,11.1,4.7,13.7,10.4c1.6,3.5,3.1,4.8,7.4,3.8
	c7.8-1.9,15.3-0.7,21.3,5.3c8.4,8.4,5.9,19.2-5.3,23.1c-2.4,0.8-5,1.5-7.4,2.2c1.1,2.4,2.4,4.7,3.4,7.1c3.1,8,3.1,16-0.7,23.7
	c-4.9,10.1-15.6,11.4-23.2,3.2C75.7,109.5,75.2,108.9,74.5,108.2z"/>
<path fill="#EFCF48" d="M40.5,101c-5.8,10.8-9.5,20.8-15.5,29.6c-1.5,2.2-3.1,4.3-5,6.2c-4.1,4-8.6,4.9-12.7,2.8
	c-4.4-2.3-7-7.9-6-13.2c1.4-7.1,5.6-12.3,12-15C21.6,107.6,30.4,104.8,40.5,101z"/>
<path fill="#EFCF48" d="M93.3,31.5c5.7-8.4,10.5-16.2,16-23.4c4.2-5.5,10.2-8.6,17.4-8.1c4.6,0.3,8.4,2.3,10.2,6.8
	c1.9,4.7-0.1,8.4-3.4,11.7c-3.1,3.1-6.9,5.2-11.1,6.6C113.3,28,103.7,29.1,93.3,31.5z"/>
<path fill="#EFCF48" d="M105.4,86.6c8.7,1.1,16.3,1.7,23.8,3.1c10.6,2,17.4,11.3,15.8,20.7c-1.4,7.9-7.8,11.1-14.8,7.3
	c-4.6-2.5-8.1-6.3-11.1-10.6C114.5,100.8,110.4,94.2,105.4,86.6z"/>
<path fill="#EFCF48" d="M45.4,43.9c-13.2-2.8-25.6-4-37.3-8.5c-6-2.3-8.5-5.6-8-10.1c0.5-4.8,4.9-9.1,10.5-10
	c7.5-1.2,14.1,1.2,18.8,6.9C34.8,28.8,39.6,36,45.4,43.9z"/>
</svg>
