<?xml version="1.0" encoding="utf-8"?>
<!-- Generator: Adobe Illustrator 26.0.1, SVG Export Plug-In . SVG Version: 6.00 Build 0)  -->
<svg version="1.2" baseProfile="tiny" id="Layer_1" xmlns="http://www.w3.org/2000/svg" xmlns:xlink="http://www.w3.org/1999/xlink"
	 x="0px" y="0px" viewBox="0 0 397.8 372.3" overflow="visible" xml:space="preserve">
<path fill="#EFCF48" d="M216.7,254.8c-2.7,10.3-5,19.5-7.5,28.5c-2.5,9-6.5,17.2-14.7,22.4c-16.6,10.5-36,2.8-42.2-16.5
	c-3.4-10.7-1.8-21,1.6-31.3c0.9-2.6,1.7-5.3,2.2-6.6c-3,2.6-6.7,5.9-10.5,9.2c-3,2.7-6.1,5.2-9.9,6.6c-8,3-14.6-2.5-13.1-11
	c1.1-6.2,4.3-11.5,7.8-16.6c1.9-2.7,3.9-5.3,6.6-8.9c-6.2,1.6-11.3,3-16.5,4.3c-7.2,1.8-14.4,2.6-21.7,0.2
	c-15.5-5.1-21.5-19-14.4-33.8c3.1-6.4,7.6-11.7,13.3-16c2.9-2.2,5.9-4.2,9.6-6.8c-7.4-0.2-13.7,1.4-20.1,2.4
	c-13.8,2.1-27.7,4.2-41.7,1.4c-7.8-1.5-14.9-4.4-17.9-12.6c-3-8.2,0.5-15,5.9-21c8.6-9.5,20.4-12.7,32.3-15.4
	c12.4-2.8,25.2-2.3,37.7-3.8c0.7-0.1,1.5-0.2,3.2-0.5c-6.1-3.6-11.5-6.5-16.1-10.6c-7.1-6.3-13.2-13.2-10.4-23.6
	c2.9-10.6,11.2-15.2,21.1-17.4c10.7-2.4,20.5,0.2,29.4,6.3c4.8,3.3,9.1,7.3,13.7,10.8c2.5,1.9,5.1,3.8,7.9,5.2
	c4.3,2.1,6.5,1.1,8-3.4c1.7-5.3,2-10.8,2.3-16.3c0.7-15.6,0.1-31.3,2.8-46.8c1.1-6.6,3-13,6.5-18.8c9.9-16.4,29.1-17.2,40.4-1.6
	c8.4,11.7,9.2,25.1,7.7,38.7c-1,9.4-2.7,18.8-3.9,28.2c-0.4,3.3-0.6,6.6-0.7,10c-0.1,2-0.4,4.3,1.5,5.5c2.2,1.3,4.2-0.1,5.9-1.4
	c9.2-6.6,18.1-13.6,28.7-18c5.2-2.2,10.5-4.2,16.1-5.1c14.8-2.4,24.9,9.7,20,23.9c-1.8,5.3-5.2,9.6-8.4,14.1
	c-4,5.5-8.2,11-10.2,17.6c-1.9,6.1-0.6,8.1,5.8,9.2c9.4,1.6,18.5-1,27.6-2.7c12.9-2.5,25.7-5.7,38.8-6.5c4.3-0.3,8.7-0.3,13,0.4
	c8.9,1.6,16.9,4.9,19.9,14.3c3.3,10.1,0.2,19.1-6.7,26.7c-7.6,8.4-17.9,11-28.7,12.5c-12,1.6-24.2,1.7-36.2,3.8
	c-3.3,0.6-6.4,1.5-9.6,3.4c3.4,1.7,6.5,3.1,9.6,4.6c3,1.5,5.6,3.6,8,5.9c6.8,6.5,6.9,18.1-6.2,20.6c2.3,3,4.6,5.8,6.6,8.7
	c13.8,20-0.2,34.4-16.1,37.8c-15.5,3.3-27.8-3.9-39.3-13c-4.4-3.5-8.3-7.6-14.2-10.5c1.3,4.7,2.5,8.6,3.6,12.6
	c1.1,3.9,1.1,7.9,0.7,11.9c-0.4,4.4-2.3,8.1-6.8,9.6c-4.3,1.5-7.8-0.3-10.8-3.4C223.2,267.8,220.4,261.9,216.7,254.8z"/>
<path fill="#EFCF48" d="M345,239.6c0.8-7.6,1.6-14.7,2.2-21.8c0.2-2,0.7-2.6,2.8-1.9c7.2,2.6,14.6,4.6,21.5,7.7
	c13.8,6.2,21.1,21.8,18.5,38.5c-1.4,8.8-3.9,17.2-10.7,23.6c-7,6.6-16.4,6.2-20.6-2.2C351.8,269.5,345.7,255.1,345,239.6z"/>
<path fill="#EFCF48" d="M253.1,295.7c9.1,7.1,17.5,13.1,25.2,19.9c12.9,11.3,16.3,30.3,8.8,45.8c-1.6,3.3-3.9,6.3-6.9,8.5
	c-6.8,4.8-15.3,2.4-19-5.9c-6.9-15.3-12-31-9.6-48.3C252.5,309.4,252.6,303.1,253.1,295.7z"/>
<path fill="#EFCF48" d="M42.9,209.6c2.3,23.5-1.5,44.9-15.9,63.7c-3.7,4.8-7.6,9.1-14.4,8c-6.7-1.1-9.5-6.2-11.2-12
	c-5-17.2,3.5-38.2,19-47.1C27.9,217.9,35.4,213.8,42.9,209.6z"/>
<path fill="#EFCF48" d="M120.6,39c-16.9,3.3-32.3,7.3-48.3,8.1c-4.5,0.2-8.8,1.6-13.2,2.4c-4.7,0.9-9,0.4-12.2-3.5
	c-3.5-4.2-3.2-9-1.3-13.7C52,16.4,72.3,9.1,89,17.2C100.2,22.7,109.1,31.5,120.6,39z"/>
<path fill="#EFCF48" d="M253.4,37c8.7-10,16.1-19.6,24.7-28.1c10.2-10.2,26.2-11.6,37.3-4.4c9.7,6.3,9.3,15.6-1,20.9
	c-13.5,6.9-28.2,8.7-43,10C265.8,35.9,260.3,36.4,253.4,37z"/>
<path fill="#EFCF48" d="M378.1,109.8c-4.1,0-9.9-1.6-15.1-4.8c-5.3-3.4-10.5-7.1-15.8-10.5c-2.1-1.4-3-2.3-0.2-4
	c5.1-3.1,10-6.6,15.2-9.6c8.2-4.7,16.8-5.2,25.3-0.7c7.6,4,11.7,12.5,9.7,19.5C395.5,105.9,389,109.8,378.1,109.8z"/>
</svg>
